<svg width="120" height="120" viewBox="0 0 120 120" fill="none" xmlns="http://www.w3.org/2000/svg">
<path d="M89.1264 66.2373V66.4685L89.2278 66.6762L97.0837 82.7608L97.0843 82.7619C97.4984 83.6071 97.4475 84.606 96.9497 85.4048C96.4519 86.2035 95.5775 86.6892 94.6363 86.6896H71.6189H70.6189V87.6896V88.0531C70.6189 94.0989 65.7178 99 59.6719 99C53.6261 99 48.725 94.0989 48.725 88.0531V87.6896V86.6896H47.725H24.7262C23.7851 86.6892 22.9106 86.2035 22.4128 85.4048C21.915 84.606 21.8641 83.6071 22.2782 82.7619L22.2788 82.7608L30.1347 66.6762L30.2361 66.4685V66.2373V50.889H30.2362L30.2361 50.8779C30.1036 38.8553 37.4487 28.0136 48.6633 23.6783L48.6711 23.6754L48.6784 23.6724L48.6785 23.6723L48.6785 23.6723L48.6787 23.6722L48.6804 23.6716L48.6901 23.6677L48.7331 23.6507C48.7722 23.6353 48.8317 23.6122 48.9102 23.5824C49.0674 23.5228 49.3005 23.4366 49.5983 23.3326C50.1944 23.1245 51.0475 22.846 52.0681 22.5675C54.1197 22.0075 56.8025 21.4599 59.4185 21.4599C62.0382 21.4599 64.8556 22.0088 67.0462 22.5713C68.1353 22.851 69.0566 23.1307 69.7042 23.34C70.0278 23.4446 70.2825 23.5314 70.4549 23.5916C70.5412 23.6217 70.6068 23.6451 70.6502 23.6607L70.6983 23.6782L70.7017 23.6794C81.8257 28.122 89.1235 38.8912 89.1264 50.8703C89.1264 50.8704 89.1264 50.8705 89.1264 50.8705V66.2373Z" stroke="#46B843" stroke-width="2"/>
<path d="M30.7143 86.5357H87.8571" stroke="#46B843" stroke-width="2" stroke-linecap="square"/>
</svg>
