<svg width="78" height="80" viewBox="0 0 78 80" fill="none" xmlns="http://www.w3.org/2000/svg">
<path d="M68.1264 46.2373V46.4685L68.2278 46.6762L76.0837 62.7608L76.0843 62.7619C76.4984 63.6071 76.4475 64.606 75.9497 65.4048C75.4519 66.2035 74.5775 66.6892 73.6363 66.6896H50.6189H49.6189V67.6896V68.0531C49.6189 74.0989 44.7178 79 38.6719 79C32.6261 79 27.725 74.0989 27.725 68.0531V67.6896V66.6896H26.725H3.72624C2.78506 66.6892 1.91062 66.2035 1.4128 65.4048C0.914975 64.606 0.864108 63.6071 1.27823 62.7619L1.27878 62.7608L9.13469 46.6762L9.23613 46.4685V46.2373V30.889H9.23619L9.23607 30.8779C9.10363 18.8553 16.4487 8.01356 27.6633 3.67835L27.6711 3.67536L27.6784 3.67239L27.6785 3.67235L27.6785 3.67233L27.6787 3.67225L27.6804 3.67159L27.6901 3.66771L27.7331 3.65066C27.7722 3.6353 27.8317 3.61218 27.9102 3.58238C28.0674 3.52278 28.3005 3.43657 28.5983 3.33259C29.1944 3.1245 30.0475 2.84604 31.0681 2.56747C33.1197 2.00754 35.8025 1.4599 38.4185 1.4599C41.0382 1.4599 43.8556 2.00875 46.0462 2.57133C47.1353 2.85103 48.0566 3.13073 48.7042 3.34002C49.0278 3.44459 49.2825 3.53139 49.4549 3.59157C49.5412 3.62166 49.6068 3.64507 49.6502 3.66071L49.6983 3.67818L49.7017 3.67943C60.8257 8.12195 68.1235 18.8912 68.1264 30.8703C68.1264 30.8704 68.1264 30.8705 68.1264 30.8705V46.2373Z" stroke="#46B843" stroke-width="2"/>
</svg>
