<svg width="120" height="120" viewBox="0 0 120 120" fill="none" xmlns="http://www.w3.org/2000/svg">
<g id="ilo/light/rss">
<g id="Group">
<g id="Combined Shape">
<mask id="path-1-inside-1_0_372" fill="white">
<path fill-rule="evenodd" clip-rule="evenodd" d="M75.8535 44.8495L75.8546 44.8505C89.4442 58.4353 98.0508 77.0073 98.6943 97.5331L98.6943 97.5357C98.7023 97.7791 98.4952 98.0005 98.2383 98.0005H87.9184C87.69 98.0005 87.383 97.7831 87.3669 97.3918M75.8535 44.8495C75.1997 44.195 74.5344 43.552 73.858 42.921ZM23.2059 22.0003C42.735 22.6174 60.4711 30.432 73.858 42.921L47.8043 38.9864C40.2787 35.6247 32.0223 33.6193 23.3475 33.2827C22.9567 33.2667 22.7391 32.9597 22.7391 32.7312V22.4613C22.7391 22.1966 22.9633 21.9924 23.2042 22.0003L23.2059 22.0003ZM87.3669 97.3908C86.3684 71.3456 70.3723 49.0676 47.8043 38.9864L23.2691 35.2811C21.8841 35.2261 20.7391 34.1112 20.7391 32.7312V22.4613C20.7391 21.0813 21.8841 19.9563 23.2691 20.0013C44.3139 20.6663 63.3287 29.4812 77.2685 43.4361L73.858 42.921M87.3669 97.3918L87.367 97.394ZM87.367 97.394L85.3684 97.4705ZM85.3684 97.4705L87.3669 97.3908ZM60.0994 97.3494L60.0993 97.3477C59.4626 87.7755 55.4449 78.8182 48.6227 72.0162C41.8203 65.1939 32.901 61.1632 23.3848 60.5255C23.1972 60.512 23.0252 60.4281 22.9042 60.3051C22.7873 60.1863 22.7391 60.0557 22.7391 59.9309V49.666C22.7391 49.3792 22.9643 49.2116 23.1601 49.219C36.1934 49.8308 47.9511 55.3972 56.6083 64.0689L56.6091 64.0697C65.2913 72.7567 70.8353 84.5267 71.4608 97.5653C71.4705 97.7808 71.286 98.0005 71.0236 98.0005H60.6887C60.5717 98.0005 60.4423 97.9547 60.3209 97.8343C60.1945 97.7089 60.1115 97.5332 60.0994 97.3494ZM23.2491 62.5209C32.284 63.1258 40.7489 66.9508 47.2088 73.4307C53.6838 79.8857 57.4987 88.3856 58.1037 97.4805C58.1937 98.8505 59.3087 100 60.6887 100H71.0236C72.4036 100 73.5236 98.8505 73.4586 97.4705C72.8086 83.9156 67.0436 71.6808 58.0237 62.6559C49.0288 53.6459 36.804 47.856 23.2491 47.221C21.8741 47.161 20.7391 48.281 20.7391 49.666V59.9309C20.7391 61.3109 21.8741 62.4259 23.2491 62.5209Z"/>
</mask>
<path d="M75.8535 44.8495L76.8304 44.6355L76.7657 44.3404L76.5485 44.1304L75.8535 44.8495ZM87.3669 97.3918L88.3661 97.352L88.3626 97.2639L88.3437 97.1778L87.3669 97.3918ZM73.858 42.921L74.553 42.2019L72.0494 39.7824L72.8875 43.1617L73.858 42.921ZM87.3669 97.3908L87.4067 98.39L88.6328 98.3412L88.3374 97.1501L87.3669 97.3908ZM87.367 97.394L87.4052 98.3932L88.4061 98.3549L88.3662 97.3541L87.367 97.394ZM85.3684 97.4705L85.3286 96.4713L85.4067 98.4697L85.3684 
97.4705ZM88.347
97.1778L76.8304 44.6355L74.8767 45.0636L86.3901 97.6059L88.3437 97.1778ZM76.5485 44.1304L74.553 42.2019L73.1631 43.6401L75.1586 45.5686L76.5485 44.1304ZM72.8875 43.1617L86.3963 97.6315L88.3374 97.1501L74.8286 42.6803L72.8875 43.1617ZM86.3677 97.4317L86.3678 97.4338L88.3662 97.3541L88.3661 97.352L86.3677 97.4317ZM87.3287 96.3947L85.3302 96.4712L85.4067 98.4697L87.4052 98.3932L87.3287 96.3947ZM85.4083 98.4697L87.4067 98.39L87.327 96.3916L85.3286 96.4713L85.4083 98.4697ZM23.1198 36.2699L47.655 39.9752L47.9537 37.9976L23.4184 34.2924L23.1198 36.2699ZM73.7087 43.9098L77.1192 44.4248L77.4179 42.4473L74.0074 41.9322L73.7087 43.9098ZM75.8546 44.8505L77.2685 43.4361L77.2674 43.435L75.8546 44.8505ZM75.8535 44.8495L74.4386 46.263L74.4407 46.2651L75.8535 44.8495ZM98.6943 97.5331L96.6952 97.5958L96.6954 97.5994L98.6943 97.5331ZM98.6943 97.5357L100.693 97.4705L100.693 97.4694L98.6943 97.5357ZM87.3669 97.3918L89.3652 97.3096L85.3685 97.4715L87.3669 97.3918ZM23.2059 22.0003L23.2691 20.0013L23.2691 20.0013L23.2059 22.0003ZM23.3475 33.2827L23.2658 35.281L23.27 35.2812L23.3475 33.2827ZM23.2042 22.0003L23.1392 23.9992L23.141 23.9993L23.2042 22.0003ZM87.3669 97.3908L87.4465 99.3892L89.4419 99.3097L89.3654 97.3142L87.3669 97.3908ZM23.2691 35.2811L23.5678 33.3036L23.4587 33.2871L23.3485 33.2827L23.2691 35.2811ZM23.2691 20.0013L23.2042 22.0003L23.2059 22.0003L23.2691 20.0013ZM77.2685 43.4361L76.9699 45.4136L82.9771 46.3208L78.6835 42.0226L77.2685 43.4361ZM87.367 97.394L87.4435 99.3925L89.4452 99.3158L89.3654 97.3143L87.367 97.394ZM85.3684 97.4705L85.2888 95.4721L85.445 99.469L85.3684 97.4705ZM60.0993 97.3477L58.1037 97.4805L58.1038 97.4817L60.0993 97.3477ZM60.0994 97.3494L62.0951 97.2183L62.0949 97.2154L60.0994 97.3494ZM48.6227 72.0162L47.2065 73.4284L47.2106 73.4325L48.6227 72.0162ZM23.3848 60.5255L23.2413 62.5203L23.2511 62.521L23.3848 60.5255ZM22.9042 60.3051L24.3299 58.9025L24.3299 58.9025L22.9042 60.3051ZM23.1601 49.219L23.2539 47.2212L23.245 47.2208L23.2362 47.2205L23.1601 49.219ZM56.6083 64.0689L55.193 65.4819L55.1941 65.4831L56.6083 64.0689ZM56.6091 64.0697L58.0237 62.6558L58.0233 62.6555L56.6091 64.0697ZM71.4608 97.5653L73.4588 97.4755L73.4585 97.4695L71.4608 97.5653ZM60.3209 97.8343L58.9125 99.2542L58.9125 99.2543L60.3209 97.8343ZM47.2088 73.4307L45.7924 74.8428L45.7968 74.8471L47.2088 73.4307ZM23.2491 62.5209L23.1112 64.5161L23.1155 64.5164L23.2491 62.5209ZM58.1037 97.4805L60.0994 97.3494L60.0993 97.3477L58.1037 97.4805ZM73.4586 97.4705L75.4564 97.3764L75.4563 97.3747L73.4586 97.4705ZM58.0237 62.6559L56.6083 64.0689L56.6091 64.0697L58.0237 62.6559ZM23.2491 47.221L23.3427 45.2232L23.3363 45.2229L23.2491 47.221ZM77.2674 43.435L77.2664 43.434L74.4407 46.2651L74.4417 46.2661L77.2674 43.435ZM100.693 97.4705C100.033 76.4157 91.2034 57.3659 77.2685 43.4361L74.4406 46.265C87.685 59.5046 96.0684 77.599 96.6952 97.5958L100.693 97.4705ZM100.693 97.4694L100.693 97.4669L96.6954 97.5994L96.6954 97.6019L100.693 97.4694ZM98.2383 100C99.6281 100 100.738 98.8407 100.693 97.4705L96.6954 97.6009C96.6666 96.7176 97.3623 96.0005 98.2383 96.0005V100ZM87.9184 100H98.2383V96.0005H87.9184V100ZM85.3686 97.4741C85.4286 98.9324 86.6127 100 87.9184 100V96.0005C88.3928 96.0005 88.7393 96.1992 88.9497 96.4016C89.1982 96.6407 89.3512 96.9692 89.3652 97.3096L85.3686 97.4741ZM77.2685 43.4361C76.5981 42.7649 75.9159 42.1056 75.2224 41.4586L72.4937 44.3834C73.1529 44.9984 73.8013 45.625 74.4386 46.263L77.2685 43.4361ZM75.2224 41.4586C61.4949 28.652 43.3013 20.6343 23.2691 20.0013L23.1428 23.9993C42.1687 24.6005 59.4472 32.212 72.4937 44.3834L75.2224 41.4586ZM47.5057 40.964L73.5594 44.8986L74.1567 40.9434L48.103 37.0088L47.5057 40.964ZM23.27 35.2812C31.6846 35.6077 39.6908 37.5526 46.9886 40.8125L48.62 37.1603C40.8666 33.6968 32.36 31.6309 23.4251 31.2842L23.27 35.2812ZM20.7391 32.7312C20.7391 34.0368 21.8075 35.2213 23.2658 35.281L23.4293 31.2844C23.7707 31.2983 24.0992 31.4518 24.338 31.6999C24.54 31.9099 24.7391 32.2564 24.7391 32.7312H20.7391ZM20.7391 22.4613V32.7312H24.7391V22.4613H20.7391ZM23.2691 20.0013C21.9046 19.957 20.7391 21.0608 20.7391 22.4613H24.7391C24.7391 23.3323 24.022 24.0279 23.1392 23.9992L23.2691 20.0013ZM23.2691 20.0013L23.2673 20.0012L23.141 23.9993L23.1428 23.9993L23.2691 20.0013ZM46.9886 40.8125C68.8861 50.5942 84.4 72.2095 85.3683 97.4674L89.3654 97.3142C88.3367 70.4816 71.8585 47.541 48.62 37.1603L46.9886 40.8125ZM22.9705 37.2587L47.5057 40.964L48.103 37.0088L23.5678 33.3036L22.9705 37.2587ZM18.7391 32.7312C18.7391 35.2624 20.8111 37.1851 23.1897 37.2796L23.3485 33.2827C22.9571 33.2672 22.7391 32.9599 22.7391 32.7312H18.7391ZM18.7391 22.4613V32.7312H22.7391V22.4613H18.7391ZM23.334 18.0024C20.8049 17.9202 18.7391 19.966 18.7391 22.4613H22.7391C22.7391 22.1966 22.9633 21.9924 23.2042 22.0002L23.334 18.0024ZM78.6835 42.0226C64.3986 27.7223 44.9061 18.684 23.3323 18.0023L23.2059 22.0003C43.7217 22.6486 62.2587 31.2401 75.8535 44.8495L78.6835 42.0226ZM73.5594 44.8986L76.9699 45.4136L77.5672 41.4585L74.1567 40.9434L73.5594 44.8986ZM85.3685 97.4715L85.3686 97.4736L89.3654 97.3143L89.3653 97.3122L85.3685 97.4715ZM87.2905 95.3954L85.2919 95.4719L85.445 99.469L87.4435 99.3925L87.2905 95.3954ZM85.4481 99.4689L87.4465 99.3892L87.2872 95.3924L85.2888 95.4721L85.4481 99.4689ZM58.1038 97.4817L58.1039 97.4833L62.0949 97.2154L62.0948 97.2138L58.1038 97.4817ZM47.2106 73.4325C53.6845 79.8872 57.4988 88.3864 58.1037 97.4805L62.0949 97.215C61.4264 87.1647 57.2054 77.7493 50.0349 70.5999L47.2106 73.4325ZM23.2511 62.521C32.2842 63.1263 40.7473 66.9503 47.2065 73.4283L50.039 70.604C42.8932 63.4374 33.5178 59.2 23.5186 58.5299L23.2511 62.521ZM21.4785 61.7077C21.9336 62.1704 22.5586 62.4712 23.2413 62.5203L23.5284 58.5306C23.8358 58.5527 24.1168 58.6858 24.3299 58.9025L21.4785 61.7077ZM20.7391 59.9309C20.7391 60.612 21.0163 61.2379 21.4785 61.7077L24.3299 58.9025C24.5583 59.1347 24.7391 59.4994 24.7391 59.9309H20.7391ZM20.7391 49.666V59.9309H24.7391V49.666H20.7391ZM23.2362 47.2205C21.93 47.1708 20.7391 48.2216 20.7391 49.666H24.7391C24.7391 50.5367 23.9986 51.2524 23.084 51.2176L23.2362 47.2205ZM58.0237 62.6558C49.0299 53.647 36.8068 47.8574 23.2539 47.2212L23.0663 51.2168C35.58 51.8042 46.8724 57.1475 55.193 65.4819L58.0237 62.6558ZM58.0233 62.6555L58.0226 62.6547L55.1941 65.4831L55.1949 65.4839L58.0233 62.6555ZM73.4585 97.4695C72.8083 83.9151 67.0435 71.6806 58.0237 62.6558L55.1945 65.4835C63.5392 73.8328 68.8624 85.1383 69.4631 97.6612L73.4585 97.4695ZM71.0236 100C72.4391 100 73.5191 98.8163 73.4588 97.4755L69.4628 97.6551C69.4219 96.7452 70.1329 96.0005 71.0236 96.0005V100ZM60.6887 100H71.0236V96.0005H60.6887V100ZM58.9125 99.2543C59.3827 99.7206 60.0089 100 60.6887 100V96.0005C61.1345 96.0005 61.5019 96.1887 61.7293 96.4143L58.9125 99.2543ZM58.1037 97.4804C58.1486 98.1635 58.4486 98.7941 58.9125 99.2542L61.7294 96.4143C61.9404 96.6236 62.0744 96.9028 62.0951 97.2183L58.1037 97.4804ZM48.6252 72.0187C41.8219 65.1943 32.9008 61.1627 23.3827 60.5253L23.1155 64.5164C31.6672 65.089 39.6759 68.7073 45.7924 74.8428L48.6252 72.0187ZM60.0993 97.3477C59.4625 87.7747 55.4442 78.8166 48.6209 72.0143L45.7968 74.8471C51.9233 80.9547 55.535 88.9965 56.1081 97.6132L60.0993 97.3477ZM60.6887 98.0005C60.5717 98.0005 60.4423 97.9547 60.3209 97.8343C60.1945 97.7089 60.1115 97.5332 60.0994 97.3494L56.108 97.6116C56.2601 99.9267 58.1517 102 60.6887 102V98.0005ZM71.0236 98.0005H60.6887V102H71.0236V98.0005ZM71.4608 97.5646C71.4709 97.7802 71.2863 98.0005 71.0236 98.0005V102C73.5209 102 75.5762 99.9207 75.4564 97.3764L71.4608 97.5646ZM56.6091 64.0697C65.2915 72.7569 70.8356 84.5273 71.4609 97.5663L75.4563 97.3747C74.7815 83.304 68.7958 70.6046 59.4383 61.242L56.6091 64.0697ZM23.1555 49.2188C36.1906 49.8295 47.9501 55.3962 56.6083 64.0689L59.4391 61.2428C50.1076 51.8957 37.4173 45.8825 23.3427 45.2232L23.1555 49.2188ZM22.7391 49.666C22.7391 49.3783 22.9657 49.2106 23.1619 49.2191L23.3363 45.2229C20.7826 45.1115 18.7391 47.1837 18.7391 49.666H22.7391ZM22.7391 59.9309V49.666H18.7391V59.9309H22.7391ZM23.387 60.5256C23.1985 60.5126 23.0257 60.4286 22.9042 60.3051C22.7873 60.1863 22.7391 60.0557 22.7391 59.9309H18.7391C18.7391 62.4566 20.7848 64.3554 23.1112 64.5161L23.387 60.5256Z" fill="#46B843" mask="url(#path-1-inside-1_0_372)"/>
</g>
<circle id="Oval 3" cx="29.4348" cy="89.5652" r="10.4348" stroke="#46B843" stroke-width="2"/>
</g>
</g>
</svg>
