<svg width="714" height="422" viewBox="0 0 714 422" fill="none" xmlns="http://www.w3.org/2000/svg">
<g filter="url(#filter0_d_0_3)">
<path d="M116.279 2.5H160.5V197V199.5H163H421H422.793L423.368 197.801L467.737 66.6667L707.419 88.2774C705.918 131.261 703.665 194.65 701.677 248.157C700.664 275.406 699.721 300.09 698.98 318.21C698.61 327.271 698.291 334.686 698.039 339.959C697.913 342.596 697.805 344.69 697.716 346.183C697.687 346.667 697.66 347.084 697.636 347.433C697.106 347.614 696.383 347.832 695.451 348.087C693.039 348.748 689.481 349.586 684.906 350.578C675.767 352.561 662.712 355.13 646.96 358.09C615.463 364.008 573.259 371.475 530.2 378.911C444.064 393.788 354.603 408.531 340.646 410.525C337.535 410.97 331.579 410.62 323.228 409.508C314.981 408.41 304.679 406.613 293.047 404.313C269.79 399.715 241.334 393.131 213.606 386.2C185.881 379.268 158.915 371.996 138.644 366.024C128.503 363.036 120.067 360.382 114.057 358.265C111.046 357.204 108.69 356.294 107.048 355.557C106.223 355.186 105.633 354.884 105.249 354.652C105.155 354.595 105.083 354.548 105.031 354.512C102.244 349.525 78.0083 304.208 54.3454 258.476C42.2858 235.169 30.3914 211.786 21.5776 193.612C17.1688 184.521 13.5437 176.761 11.0565 170.975C9.81107 168.078 8.86718 165.714 8.25441 163.943C7.94724 163.056 7.73736 162.357 7.61342 161.839C7.52955 161.487 7.5055 161.299 7.49712 161.231C7.51329 161.172 7.54882 161.053 7.62181 160.86C7.74733 160.527 7.94133 160.084 8.21545 159.522C8.76291 158.398 9.56951 156.921 10.6259 155.109C12.735 151.49 15.7627 146.667 19.5107 140.911C27.002 129.405 37.3044 114.273 48.7293 97.7998C71.264 65.3081 98.1221 27.6646 116.279 2.5Z" stroke="#FF0000" stroke-width="5" shape-rendering="crispEdges"/>
</g>
<defs>
<filter id="filter0_d_0_3" x="0.992188" y="0" width="713.008" height="421.211" filterUnits="userSpaceOnUse" color-interpolation-filters="sRGB">
<feFlood flood-opacity="0" result="BackgroundImageFix"/>
<feColorMatrix in="SourceAlpha" type="matrix" values="0 0 0 0 0 0 0 0 0 0 0 0 0 0 0 0 0 0 127 0" result="hardAlpha"/>
<feOffset dy="4"/>
<feGaussianBlur stdDeviation="2"/>
<feComposite in2="hardAlpha" operator="out"/>
<feColorMatrix type="matrix" values="0 0 0 0 0 0 0 0 0 0 0 0 0 0 0 0 0 0 0.25 0"/>
<feBlend mode="normal" in2="BackgroundImageFix" result="effect1_dropShadow_0_3"/>
<feBlend mode="normal" in="SourceGraphic" in2="effect1_dropShadow_0_3" result="shape"/>
</filter>
</defs>
</svg>
